<svg xmlns="http://www.w3.org/2000/svg" xmlns:xlink="http://www.w3.org/1999/xlink" width="500" zoomAndPan="magnify" viewBox="0 0 375 374.999991" height="500" preserveAspectRatio="xMidYMid meet" version="1.0"><defs><clipPath id="521b5beffc"><path d="M 52.539062 69.65625 L 322.460938 69.65625 L 322.460938 305.34375 L 52.539062 305.34375 Z M 52.539062 69.65625 " clip-rule="nonzero"/></clipPath><clipPath id="e8723fac42"><path d="M 68.289062 69.65625 L 306.710938 69.65625 C 310.890625 69.65625 314.894531 71.3125 317.851562 74.269531 C 320.804688 77.222656 322.460938 81.226562 322.460938 85.40625 L 322.460938 289.59375 C 322.460938 293.773438 320.804688 297.777344 317.851562 300.730469 C 314.894531 303.6875 310.890625 305.34375 306.710938 305.34375 L 68.289062 305.34375 C 64.109375 305.34375 60.105469 303.6875 57.148438 300.730469 C 54.195312 297.777344 52.539062 293.773438 52.539062 289.59375 L 52.539062 85.40625 C 52.539062 76.707031 59.589844 69.65625 68.289062 69.65625 Z M 68.289062 69.65625 " clip-rule="nonzero"/></clipPath><linearGradient x1="0.00000020007" gradientTransform="matrix(1.054397, 0, 0, 0.920665, 52.537131, 69.654938)" y1="0" x2="255.999991" gradientUnits="userSpaceOnUse" y2="0" id="7af3cfb739"><stop stop-opacity="1" stop-color="rgb(0%, 0%, 0%)" offset="0"/><stop stop-opacity="1" stop-color="rgb(0.0808716%, 0.0778198%, 0.312805%)" offset="0.00390625"/><stop stop-opacity="1" stop-color="rgb(0.161743%, 0.15564%, 0.627136%)" offset="0.0078125"/><stop stop-opacity="1" stop-color="rgb(0.242615%, 0.233459%, 0.941467%)" offset="0.0117188"/><stop stop-opacity="1" stop-color="rgb(0.323486%, 0.311279%, 1.255798%)" offset="0.015625"/><stop stop-opacity="1" stop-color="rgb(0.404358%, 0.389099%, 1.568604%)" offset="0.0195312"/><stop stop-opacity="1" stop-color="rgb(0.486755%, 0.468445%, 1.882935%)" offset="0.0234375"/><stop stop-opacity="1" stop-color="rgb(0.567627%, 0.546265%, 2.197266%)" offset="0.0273437"/><stop stop-opacity="1" stop-color="rgb(0.648499%, 0.624084%, 2.511597%)" offset="0.03125"/><stop stop-opacity="1" stop-color="rgb(0.72937%, 0.701904%, 2.825928%)" offset="0.0351562"/><stop stop-opacity="1" stop-color="rgb(0.811768%, 0.779724%, 3.140259%)" offset="0.0390625"/><stop stop-opacity="1" stop-color="rgb(0.892639%, 0.857544%, 3.453064%)" offset="0.0429687"/><stop stop-opacity="1" stop-color="rgb(0.973511%, 0.93689%, 3.767395%)" offset="0.046875"/><stop stop-opacity="1" stop-color="rgb(1.054382%, 1.014709%, 4.081726%)" offset="0.0507812"/><stop stop-opacity="1" stop-color="rgb(1.13678%, 1.092529%, 4.396057%)" offset="0.0546875"/><stop stop-opacity="1" stop-color="rgb(1.217651%, 1.170349%, 4.710388%)" offset="0.0585937"/><stop stop-opacity="1" stop-color="rgb(1.298523%, 1.249695%, 5.024719%)" offset="0.0625"/><stop stop-opacity="1" stop-color="rgb(1.379395%, 1.327515%, 5.337524%)" offset="0.0664062"/><stop stop-opacity="1" stop-color="rgb(1.461792%, 1.405334%, 5.651855%)" offset="0.0703125"/><stop stop-opacity="1" stop-color="rgb(1.542664%, 1.483154%, 5.966187%)" offset="0.0742188"/><stop stop-opacity="1" stop-color="rgb(1.623535%, 1.560974%, 6.280518%)" offset="0.078125"/><stop stop-opacity="1" stop-color="rgb(1.704407%, 1.638794%, 6.594849%)" offset="0.0820312"/><stop stop-opacity="1" stop-color="rgb(1.786804%, 1.71814%, 6.90918%)" offset="0.0859375"/><stop stop-opacity="1" stop-color="rgb(1.867676%, 1.795959%, 7.221985%)" offset="0.0898437"/><stop stop-opacity="1" stop-color="rgb(1.948547%, 1.873779%, 7.536316%)" offset="0.09375"/><stop stop-opacity="1" stop-color="rgb(2.029419%, 1.951599%, 7.850647%)" offset="0.0976562"/><stop stop-opacity="1" stop-color="rgb(2.111816%, 2.030945%, 8.164978%)" offset="0.101562"/><stop stop-opacity="1" stop-color="rgb(2.192688%, 2.108765%, 8.479309%)" offset="0.105469"/><stop stop-opacity="1" stop-color="rgb(2.27356%, 2.186584%, 8.79364%)" offset="0.109375"/><stop stop-opacity="1" stop-color="rgb(2.354431%, 2.264404%, 9.106445%)" offset="0.113281"/><stop stop-opacity="1" stop-color="rgb(2.436829%, 2.342224%, 9.420776%)" offset="0.117187"/><stop stop-opacity="1" stop-color="rgb(2.5177%, 2.420044%, 9.735107%)" offset="0.121094"/><stop stop-opacity="1" stop-color="rgb(2.598572%, 2.49939%, 10.049438%)" offset="0.125"/><stop stop-opacity="1" stop-color="rgb(2.679443%, 2.577209%, 10.36377%)" offset="0.128906"/><stop stop-opacity="1" stop-color="rgb(2.761841%, 2.655029%, 10.678101%)" offset="0.132812"/><stop stop-opacity="1" stop-color="rgb(2.842712%, 2.732849%, 10.990906%)" offset="0.136719"/><stop stop-opacity="1" stop-color="rgb(2.923584%, 2.812195%, 11.305237%)" offset="0.140625"/><stop stop-opacity="1" stop-color="rgb(3.004456%, 2.890015%, 11.619568%)" offset="0.144531"/><stop stop-opacity="1" stop-color="rgb(3.086853%, 2.967834%, 11.933899%)" offset="0.148437"/><stop stop-opacity="1" stop-color="rgb(3.167725%, 3.045654%, 12.246704%)" offset="0.152344"/><stop stop-opacity="1" stop-color="rgb(3.248596%, 3.123474%, 12.561035%)" offset="0.15625"/><stop stop-opacity="1" stop-color="rgb(3.329468%, 3.201294%, 12.875366%)" offset="0.160156"/><stop stop-opacity="1" stop-color="rgb(3.411865%, 3.28064%, 13.189697%)" offset="0.164062"/><stop stop-opacity="1" stop-color="rgb(3.492737%, 3.358459%, 13.504028%)" offset="0.167969"/><stop stop-opacity="1" stop-color="rgb(3.573608%, 3.436279%, 13.818359%)" offset="0.171875"/><stop stop-opacity="1" stop-color="rgb(3.65448%, 3.514099%, 14.131165%)" offset="0.175781"/><stop stop-opacity="1" stop-color="rgb(3.736877%, 3.593445%, 14.445496%)" offset="0.179687"/><stop stop-opacity="1" stop-color="rgb(3.817749%, 3.671265%, 14.759827%)" offset="0.183594"/><stop stop-opacity="1" stop-color="rgb(3.898621%, 3.749084%, 15.074158%)" offset="0.1875"/><stop stop-opacity="1" stop-color="rgb(3.979492%, 3.826904%, 15.388489%)" offset="0.191406"/><stop stop-opacity="1" stop-color="rgb(4.06189%, 3.904724%, 15.70282%)" offset="0.195312"/><stop stop-opacity="1" stop-color="rgb(4.142761%, 3.982544%, 16.015625%)" offset="0.199219"/><stop stop-opacity="1" stop-color="rgb(4.223633%, 4.06189%, 16.329956%)" offset="0.203125"/><stop stop-opacity="1" stop-color="rgb(4.304504%, 4.139709%, 16.644287%)" offset="0.207031"/><stop stop-opacity="1" stop-color="rgb(4.386902%, 4.217529%, 16.958618%)" offset="0.210937"/><stop stop-opacity="1" stop-color="rgb(4.467773%, 4.295349%, 17.272949%)" offset="0.214844"/><stop stop-opacity="1" stop-color="rgb(4.548645%, 4.374695%, 17.58728%)" offset="0.21875"/><stop stop-opacity="1" stop-color="rgb(4.629517%, 4.452515%, 17.900085%)" offset="0.222656"/><stop stop-opacity="1" stop-color="rgb(4.711914%, 4.530334%, 18.214417%)" offset="0.226562"/><stop stop-opacity="1" stop-color="rgb(4.792786%, 4.608154%, 18.528748%)" offset="0.230469"/><stop stop-opacity="1" stop-color="rgb(4.873657%, 4.685974%, 18.843079%)" offset="0.234375"/><stop stop-opacity="1" stop-color="rgb(4.954529%, 4.763794%, 19.15741%)" offset="0.238281"/><stop stop-opacity="1" stop-color="rgb(5.036926%, 4.84314%, 19.471741%)" offset="0.242187"/><stop stop-opacity="1" stop-color="rgb(5.117798%, 4.920959%, 19.784546%)" offset="0.246094"/><stop stop-opacity="1" stop-color="rgb(5.198669%, 4.998779%, 20.098877%)" offset="0.25"/><stop stop-opacity="1" stop-color="rgb(5.279541%, 5.076599%, 20.413208%)" offset="0.253906"/><stop stop-opacity="1" stop-color="rgb(5.361938%, 5.155945%, 20.727539%)" offset="0.257812"/><stop stop-opacity="1" stop-color="rgb(5.44281%, 5.233765%, 21.04187%)" offset="0.261719"/><stop stop-opacity="1" stop-color="rgb(5.523682%, 5.311584%, 21.356201%)" offset="0.265625"/><stop stop-opacity="1" stop-color="rgb(5.604553%, 5.389404%, 21.669006%)" offset="0.269531"/><stop stop-opacity="1" stop-color="rgb(5.686951%, 5.467224%, 21.983337%)" offset="0.273438"/><stop stop-opacity="1" stop-color="rgb(5.767822%, 5.545044%, 22.297668%)" offset="0.277344"/><stop stop-opacity="1" stop-color="rgb(5.848694%, 5.62439%, 22.612%)" offset="0.28125"/><stop stop-opacity="1" stop-color="rgb(5.929565%, 5.702209%, 22.924805%)" offset="0.285156"/><stop stop-opacity="1" stop-color="rgb(6.011963%, 5.780029%, 23.239136%)" offset="0.289062"/><stop stop-opacity="1" stop-color="rgb(6.092834%, 5.857849%, 23.553467%)" offset="0.292969"/><stop stop-opacity="1" stop-color="rgb(6.173706%, 5.937195%, 23.867798%)" offset="0.296875"/><stop stop-opacity="1" stop-color="rgb(6.254578%, 6.015015%, 24.182129%)" offset="0.300781"/><stop stop-opacity="1" stop-color="rgb(6.336975%, 6.092834%, 24.49646%)" offset="0.304687"/><stop stop-opacity="1" stop-color="rgb(6.417847%, 6.170654%, 24.809265%)" offset="0.308594"/><stop stop-opacity="1" stop-color="rgb(6.498718%, 6.248474%, 25.123596%)" offset="0.3125"/><stop stop-opacity="1" stop-color="rgb(6.57959%, 6.326294%, 25.437927%)" offset="0.316406"/><stop stop-opacity="1" stop-color="rgb(6.661987%, 6.40564%, 25.752258%)" offset="0.320313"/><stop stop-opacity="1" stop-color="rgb(6.742859%, 6.483459%, 26.066589%)" offset="0.324219"/><stop stop-opacity="1" stop-color="rgb(6.82373%, 6.561279%, 26.38092%)" offset="0.328125"/><stop stop-opacity="1" stop-color="rgb(6.904602%, 6.639099%, 26.693726%)" offset="0.332031"/><stop stop-opacity="1" stop-color="rgb(6.987%, 6.718445%, 27.008057%)" offset="0.335938"/><stop stop-opacity="1" stop-color="rgb(7.067871%, 6.796265%, 27.322388%)" offset="0.339844"/><stop stop-opacity="1" stop-color="rgb(7.148743%, 6.874084%, 27.636719%)" offset="0.34375"/><stop stop-opacity="1" stop-color="rgb(7.229614%, 6.951904%, 27.95105%)" offset="0.347656"/><stop stop-opacity="1" stop-color="rgb(7.312012%, 7.029724%, 28.265381%)" offset="0.351562"/><stop stop-opacity="1" stop-color="rgb(7.392883%, 7.107544%, 28.578186%)" offset="0.355469"/><stop stop-opacity="1" stop-color="rgb(7.473755%, 7.18689%, 28.892517%)" offset="0.359375"/><stop stop-opacity="1" stop-color="rgb(7.554626%, 7.264709%, 29.206848%)" offset="0.363281"/><stop stop-opacity="1" stop-color="rgb(7.637024%, 7.342529%, 29.521179%)" offset="0.367188"/><stop stop-opacity="1" stop-color="rgb(7.717896%, 7.420349%, 29.83551%)" offset="0.371094"/><stop stop-opacity="1" stop-color="rgb(7.798767%, 7.499695%, 30.149841%)" offset="0.375"/><stop stop-opacity="1" stop-color="rgb(7.879639%, 7.577515%, 30.462646%)" offset="0.378906"/><stop stop-opacity="1" stop-color="rgb(7.962036%, 7.655334%, 30.776978%)" offset="0.382812"/><stop stop-opacity="1" stop-color="rgb(8.042908%, 7.733154%, 31.091309%)" offset="0.386719"/><stop stop-opacity="1" stop-color="rgb(8.123779%, 7.810974%, 31.40564%)" offset="0.390625"/><stop stop-opacity="1" stop-color="rgb(8.204651%, 7.888794%, 31.719971%)" offset="0.394531"/><stop stop-opacity="1" stop-color="rgb(8.287048%, 7.96814%, 32.034302%)" offset="0.398438"/><stop stop-opacity="1" stop-color="rgb(8.36792%, 8.045959%, 32.347107%)" offset="0.402344"/><stop stop-opacity="1" stop-color="rgb(8.448792%, 8.123779%, 32.661438%)" offset="0.40625"/><stop stop-opacity="1" stop-color="rgb(8.529663%, 8.201599%, 32.975769%)" offset="0.410156"/><stop stop-opacity="1" stop-color="rgb(8.612061%, 8.280945%, 33.2901%)" offset="0.414062"/><stop stop-opacity="1" stop-color="rgb(8.692932%, 8.358765%, 33.602905%)" offset="0.417969"/><stop stop-opacity="1" stop-color="rgb(8.773804%, 8.436584%, 33.917236%)" offset="0.421875"/><stop stop-opacity="1" stop-color="rgb(8.854675%, 8.514404%, 34.231567%)" offset="0.425781"/><stop stop-opacity="1" stop-color="rgb(8.937073%, 8.592224%, 34.545898%)" offset="0.429687"/><stop stop-opacity="1" stop-color="rgb(9.017944%, 8.670044%, 34.860229%)" offset="0.433594"/><stop stop-opacity="1" stop-color="rgb(9.098816%, 8.74939%, 35.174561%)" offset="0.4375"/><stop stop-opacity="1" stop-color="rgb(9.179688%, 8.827209%, 35.487366%)" offset="0.441406"/><stop stop-opacity="1" stop-color="rgb(9.262085%, 8.905029%, 35.801697%)" offset="0.445313"/><stop stop-opacity="1" stop-color="rgb(9.342957%, 8.982849%, 36.116028%)" offset="0.449219"/><stop stop-opacity="1" stop-color="rgb(9.423828%, 9.062195%, 36.430359%)" offset="0.453125"/><stop stop-opacity="1" stop-color="rgb(9.5047%, 9.140015%, 36.74469%)" offset="0.457031"/><stop stop-opacity="1" stop-color="rgb(9.587097%, 9.217834%, 37.059021%)" offset="0.460938"/><stop stop-opacity="1" stop-color="rgb(9.667969%, 9.295654%, 37.371826%)" offset="0.464844"/><stop stop-opacity="1" stop-color="rgb(9.74884%, 9.373474%, 37.686157%)" offset="0.46875"/><stop stop-opacity="1" stop-color="rgb(9.829712%, 9.451294%, 38.000488%)" offset="0.472656"/><stop stop-opacity="1" stop-color="rgb(9.912109%, 9.53064%, 38.314819%)" offset="0.476562"/><stop stop-opacity="1" stop-color="rgb(9.992981%, 9.608459%, 38.62915%)" offset="0.480469"/><stop stop-opacity="1" stop-color="rgb(10.073853%, 9.686279%, 38.943481%)" offset="0.484375"/><stop stop-opacity="1" stop-color="rgb(10.154724%, 9.764099%, 39.256287%)" offset="0.488281"/><stop stop-opacity="1" stop-color="rgb(10.237122%, 9.843445%, 39.570618%)" offset="0.492188"/><stop stop-opacity="1" stop-color="rgb(10.317993%, 9.921265%, 39.884949%)" offset="0.496094"/><stop stop-opacity="1" stop-color="rgb(10.398865%, 9.999084%, 40.19928%)" offset="0.5"/><stop stop-opacity="1" stop-color="rgb(10.479736%, 10.076904%, 40.513611%)" offset="0.503906"/><stop stop-opacity="1" stop-color="rgb(10.562134%, 10.154724%, 40.827942%)" offset="0.507812"/><stop stop-opacity="1" stop-color="rgb(10.643005%, 10.232544%, 41.140747%)" offset="0.511719"/><stop stop-opacity="1" stop-color="rgb(10.723877%, 10.31189%, 41.455078%)" offset="0.515625"/><stop stop-opacity="1" stop-color="rgb(10.804749%, 10.389709%, 41.769409%)" offset="0.519531"/><stop stop-opacity="1" stop-color="rgb(10.887146%, 10.467529%, 42.08374%)" offset="0.523437"/><stop stop-opacity="1" stop-color="rgb(10.968018%, 10.545349%, 42.398071%)" offset="0.527344"/><stop stop-opacity="1" stop-color="rgb(11.048889%, 10.624695%, 42.712402%)" offset="0.53125"/><stop stop-opacity="1" stop-color="rgb(11.129761%, 10.702515%, 43.025208%)" offset="0.535156"/><stop stop-opacity="1" stop-color="rgb(11.212158%, 10.780334%, 43.339539%)" offset="0.539063"/><stop stop-opacity="1" stop-color="rgb(11.29303%, 10.858154%, 43.65387%)" offset="0.542969"/><stop stop-opacity="1" stop-color="rgb(11.373901%, 10.935974%, 43.968201%)" offset="0.546875"/><stop stop-opacity="1" stop-color="rgb(11.454773%, 11.013794%, 44.282532%)" offset="0.550781"/><stop stop-opacity="1" stop-color="rgb(11.53717%, 11.09314%, 44.596863%)" offset="0.554688"/><stop stop-opacity="1" stop-color="rgb(11.618042%, 11.170959%, 44.909668%)" offset="0.558594"/><stop stop-opacity="1" stop-color="rgb(11.698914%, 11.248779%, 45.223999%)" offset="0.5625"/><stop stop-opacity="1" stop-color="rgb(11.779785%, 11.326599%, 45.53833%)" offset="0.566406"/><stop stop-opacity="1" stop-color="rgb(11.862183%, 11.405945%, 45.852661%)" offset="0.570312"/><stop stop-opacity="1" stop-color="rgb(11.943054%, 11.483765%, 46.165466%)" offset="0.574219"/><stop stop-opacity="1" stop-color="rgb(12.023926%, 11.561584%, 46.479797%)" offset="0.578125"/><stop stop-opacity="1" stop-color="rgb(12.104797%, 11.639404%, 46.794128%)" offset="0.582031"/><stop stop-opacity="1" stop-color="rgb(12.187195%, 11.717224%, 47.108459%)" offset="0.585938"/><stop stop-opacity="1" stop-color="rgb(12.268066%, 11.795044%, 47.422791%)" offset="0.589844"/><stop stop-opacity="1" stop-color="rgb(12.348938%, 11.87439%, 47.737122%)" offset="0.59375"/><stop stop-opacity="1" stop-color="rgb(12.42981%, 11.952209%, 48.049927%)" offset="0.597656"/><stop stop-opacity="1" stop-color="rgb(12.512207%, 12.030029%, 48.364258%)" offset="0.601562"/><stop stop-opacity="1" stop-color="rgb(12.593079%, 12.107849%, 48.678589%)" offset="0.605469"/><stop stop-opacity="1" stop-color="rgb(12.67395%, 12.187195%, 48.99292%)" offset="0.609375"/><stop stop-opacity="1" stop-color="rgb(12.754822%, 12.265015%, 49.307251%)" offset="0.613281"/><stop stop-opacity="1" stop-color="rgb(12.837219%, 12.342834%, 49.621582%)" offset="0.617187"/><stop stop-opacity="1" stop-color="rgb(12.918091%, 12.420654%, 49.934387%)" offset="0.621094"/><stop stop-opacity="1" stop-color="rgb(12.998962%, 12.498474%, 50.248718%)" offset="0.625"/><stop stop-opacity="1" stop-color="rgb(13.079834%, 12.576294%, 50.563049%)" offset="0.628906"/><stop stop-opacity="1" stop-color="rgb(13.162231%, 12.65564%, 50.87738%)" offset="0.632813"/><stop stop-opacity="1" stop-color="rgb(13.243103%, 12.733459%, 51.191711%)" offset="0.636719"/><stop stop-opacity="1" stop-color="rgb(13.323975%, 12.811279%, 51.506042%)" offset="0.640625"/><stop stop-opacity="1" stop-color="rgb(13.404846%, 12.889099%, 51.818848%)" offset="0.644531"/><stop stop-opacity="1" stop-color="rgb(13.487244%, 12.968445%, 52.133179%)" offset="0.648438"/><stop stop-opacity="1" stop-color="rgb(13.568115%, 13.046265%, 52.44751%)" offset="0.652344"/><stop stop-opacity="1" stop-color="rgb(13.648987%, 13.124084%, 52.761841%)" offset="0.65625"/><stop stop-opacity="1" stop-color="rgb(13.729858%, 13.201904%, 53.076172%)" offset="0.660156"/><stop stop-opacity="1" stop-color="rgb(13.812256%, 13.279724%, 53.390503%)" offset="0.664062"/><stop stop-opacity="1" stop-color="rgb(13.893127%, 13.357544%, 53.703308%)" offset="0.667969"/><stop stop-opacity="1" stop-color="rgb(13.973999%, 13.43689%, 54.017639%)" offset="0.671875"/><stop stop-opacity="1" stop-color="rgb(14.054871%, 13.514709%, 54.33197%)" offset="0.675781"/><stop stop-opacity="1" stop-color="rgb(14.137268%, 13.592529%, 54.646301%)" offset="0.679688"/><stop stop-opacity="1" stop-color="rgb(14.21814%, 13.670349%, 54.960632%)" offset="0.683594"/><stop stop-opacity="1" stop-color="rgb(14.299011%, 13.749695%, 55.274963%)" offset="0.6875"/><stop stop-opacity="1" stop-color="rgb(14.379883%, 13.827515%, 55.587769%)" offset="0.691406"/><stop stop-opacity="1" stop-color="rgb(14.46228%, 13.905334%, 55.9021%)" offset="0.695312"/><stop stop-opacity="1" stop-color="rgb(14.543152%, 13.983154%, 56.216431%)" offset="0.699219"/><stop stop-opacity="1" stop-color="rgb(14.624023%, 14.060974%, 56.530762%)" offset="0.703125"/><stop stop-opacity="1" stop-color="rgb(14.704895%, 14.138794%, 56.843567%)" offset="0.707031"/><stop stop-opacity="1" stop-color="rgb(14.787292%, 14.21814%, 57.157898%)" offset="0.710937"/><stop stop-opacity="1" stop-color="rgb(14.868164%, 14.295959%, 57.472229%)" offset="0.714844"/><stop stop-opacity="1" stop-color="rgb(14.949036%, 14.373779%, 57.78656%)" offset="0.71875"/><stop stop-opacity="1" stop-color="rgb(15.029907%, 14.451599%, 58.100891%)" offset="0.722656"/><stop stop-opacity="1" stop-color="rgb(15.112305%, 14.530945%, 58.415222%)" offset="0.726563"/><stop stop-opacity="1" stop-color="rgb(15.193176%, 14.608765%, 58.728027%)" offset="0.730469"/><stop stop-opacity="1" stop-color="rgb(15.274048%, 14.686584%, 59.042358%)" offset="0.734375"/><stop stop-opacity="1" stop-color="rgb(15.354919%, 14.764404%, 59.356689%)" offset="0.738281"/><stop stop-opacity="1" stop-color="rgb(15.437317%, 14.842224%, 59.671021%)" offset="0.742188"/><stop stop-opacity="1" stop-color="rgb(15.518188%, 14.920044%, 59.985352%)" offset="0.746094"/><stop stop-opacity="1" stop-color="rgb(15.59906%, 14.99939%, 60.299683%)" offset="0.75"/><stop stop-opacity="1" stop-color="rgb(15.679932%, 15.077209%, 60.612488%)" offset="0.753906"/><stop stop-opacity="1" stop-color="rgb(15.762329%, 15.155029%, 60.926819%)" offset="0.757812"/><stop stop-opacity="1" stop-color="rgb(15.843201%, 15.232849%, 61.24115%)" offset="0.761719"/><stop stop-opacity="1" stop-color="rgb(15.924072%, 15.312195%, 61.555481%)" offset="0.765625"/><stop stop-opacity="1" stop-color="rgb(16.004944%, 15.390015%, 61.869812%)" offset="0.769531"/><stop stop-opacity="1" stop-color="rgb(16.087341%, 15.467834%, 62.184143%)" offset="0.773437"/><stop stop-opacity="1" stop-color="rgb(16.168213%, 15.545654%, 62.496948%)" offset="0.777344"/><stop stop-opacity="1" stop-color="rgb(16.249084%, 15.623474%, 62.811279%)" offset="0.78125"/><stop stop-opacity="1" stop-color="rgb(16.329956%, 15.701294%, 63.12561%)" offset="0.785156"/><stop stop-opacity="1" stop-color="rgb(16.412354%, 15.78064%, 63.439941%)" offset="0.789063"/><stop stop-opacity="1" stop-color="rgb(16.493225%, 15.858459%, 63.754272%)" offset="0.792969"/><stop stop-opacity="1" stop-color="rgb(16.574097%, 15.936279%, 64.068604%)" offset="0.796875"/><stop stop-opacity="1" stop-color="rgb(16.654968%, 16.014099%, 64.381409%)" offset="0.800781"/><stop stop-opacity="1" stop-color="rgb(16.737366%, 16.093445%, 64.69574%)" offset="0.804688"/><stop stop-opacity="1" stop-color="rgb(16.818237%, 16.171265%, 65.010071%)" offset="0.808594"/><stop stop-opacity="1" stop-color="rgb(16.899109%, 16.249084%, 65.324402%)" offset="0.8125"/><stop stop-opacity="1" stop-color="rgb(16.97998%, 16.326904%, 65.638733%)" offset="0.816406"/><stop stop-opacity="1" stop-color="rgb(17.062378%, 16.404724%, 65.953064%)" offset="0.820312"/><stop stop-opacity="1" stop-color="rgb(17.14325%, 16.482544%, 66.265869%)" offset="0.824219"/><stop stop-opacity="1" stop-color="rgb(17.224121%, 16.56189%, 66.5802%)" offset="0.828125"/><stop stop-opacity="1" stop-color="rgb(17.304993%, 16.639709%, 66.894531%)" offset="0.832031"/><stop stop-opacity="1" stop-color="rgb(17.38739%, 16.717529%, 67.208862%)" offset="0.835938"/><stop stop-opacity="1" stop-color="rgb(17.468262%, 16.795349%, 67.521667%)" offset="0.839844"/><stop stop-opacity="1" stop-color="rgb(17.549133%, 16.874695%, 67.835999%)" offset="0.84375"/><stop stop-opacity="1" stop-color="rgb(17.630005%, 16.952515%, 68.15033%)" offset="0.847656"/><stop stop-opacity="1" stop-color="rgb(17.712402%, 17.030334%, 68.464661%)" offset="0.851562"/><stop stop-opacity="1" stop-color="rgb(17.793274%, 17.108154%, 68.778992%)" offset="0.855469"/><stop stop-opacity="1" stop-color="rgb(17.874146%, 17.185974%, 69.093323%)" offset="0.859375"/><stop stop-opacity="1" stop-color="rgb(17.955017%, 17.263794%, 69.406128%)" offset="0.863281"/><stop stop-opacity="1" stop-color="rgb(18.037415%, 17.34314%, 69.720459%)" offset="0.867187"/><stop stop-opacity="1" stop-color="rgb(18.118286%, 17.420959%, 70.03479%)" offset="0.871094"/><stop stop-opacity="1" stop-color="rgb(18.199158%, 17.498779%, 70.349121%)" offset="0.875"/><stop stop-opacity="1" stop-color="rgb(18.280029%, 17.576599%, 70.663452%)" offset="0.878906"/><stop stop-opacity="1" stop-color="rgb(18.362427%, 17.655945%, 70.977783%)" offset="0.882813"/><stop stop-opacity="1" stop-color="rgb(18.443298%, 17.733765%, 71.290588%)" offset="0.886719"/><stop stop-opacity="1" stop-color="rgb(18.52417%, 17.811584%, 71.604919%)" offset="0.890625"/><stop stop-opacity="1" stop-color="rgb(18.605042%, 17.889404%, 71.91925%)" offset="0.894531"/><stop stop-opacity="1" stop-color="rgb(18.687439%, 17.967224%, 72.233582%)" offset="0.898438"/><stop stop-opacity="1" stop-color="rgb(18.768311%, 18.045044%, 72.547913%)" offset="0.902344"/><stop stop-opacity="1" stop-color="rgb(18.849182%, 18.12439%, 72.862244%)" offset="0.90625"/><stop stop-opacity="1" stop-color="rgb(18.930054%, 18.202209%, 73.175049%)" offset="0.910156"/><stop stop-opacity="1" stop-color="rgb(19.012451%, 18.280029%, 73.48938%)" offset="0.914062"/><stop stop-opacity="1" stop-color="rgb(19.093323%, 18.357849%, 73.803711%)" offset="0.917969"/><stop stop-opacity="1" stop-color="rgb(19.174194%, 18.437195%, 74.118042%)" offset="0.921875"/><stop stop-opacity="1" stop-color="rgb(19.255066%, 18.515015%, 74.432373%)" offset="0.925781"/><stop stop-opacity="1" stop-color="rgb(19.337463%, 18.592834%, 74.746704%)" offset="0.929688"/><stop stop-opacity="1" stop-color="rgb(19.418335%, 18.670654%, 75.059509%)" offset="0.933594"/><stop stop-opacity="1" stop-color="rgb(19.499207%, 18.748474%, 75.37384%)" offset="0.9375"/><stop stop-opacity="1" stop-color="rgb(19.580078%, 18.826294%, 75.688171%)" offset="0.941406"/><stop stop-opacity="1" stop-color="rgb(19.662476%, 18.90564%, 76.002502%)" offset="0.945312"/><stop stop-opacity="1" stop-color="rgb(19.743347%, 18.983459%, 76.316833%)" offset="0.949219"/><stop stop-opacity="1" stop-color="rgb(19.824219%, 19.061279%, 76.631165%)" offset="0.953125"/><stop stop-opacity="1" stop-color="rgb(19.90509%, 19.139099%, 76.94397%)" offset="0.957031"/><stop stop-opacity="1" stop-color="rgb(19.987488%, 19.218445%, 77.258301%)" offset="0.960937"/><stop stop-opacity="1" stop-color="rgb(20.068359%, 19.296265%, 77.572632%)" offset="0.964844"/><stop stop-opacity="1" stop-color="rgb(20.149231%, 19.374084%, 77.886963%)" offset="0.96875"/><stop stop-opacity="1" stop-color="rgb(20.230103%, 19.451904%, 78.199768%)" offset="0.972656"/><stop stop-opacity="1" stop-color="rgb(20.310974%, 19.529724%, 78.514099%)" offset="0.976563"/><stop stop-opacity="1" stop-color="rgb(20.391846%, 19.607544%, 78.82843%)" offset="0.980469"/><stop stop-opacity="1" stop-color="rgb(20.474243%, 19.68689%, 79.142761%)" offset="0.984375"/><stop stop-opacity="1" stop-color="rgb(20.555115%, 19.764709%, 79.457092%)" offset="0.988281"/><stop stop-opacity="1" stop-color="rgb(20.635986%, 19.842529%, 79.771423%)" offset="0.992188"/><stop stop-opacity="1" stop-color="rgb(20.716858%, 19.920349%, 80.084229%)" offset="0.996094"/><stop stop-opacity="1" stop-color="rgb(20.799255%, 19.999695%, 80.39856%)" offset="1"/></linearGradient><clipPath id="d171e0ed4f"><path d="M 81 119 L 293.878906 119 L 293.878906 257 L 81 257 Z M 81 119 " clip-rule="nonzero"/></clipPath></defs><rect x="-37.5" width="450" fill="#ffffff" y="-37.499999" height="449.999989" fill-opacity="1"/><rect x="-37.5" width="450" fill="#ffffff" y="-37.499999" height="449.999989" fill-opacity="1"/><g clip-path="url(#521b5beffc)"><g clip-path="url(#e8723fac42)"><path fill="url(#7af3cfb739)" d="M 52.539062 69.65625 L 52.539062 305.34375 L 322.460938 305.34375 L 322.460938 69.65625 Z M 52.539062 69.65625 " fill-rule="nonzero"/></g></g><g clip-path="url(#d171e0ed4f)"><path fill="#364548" d="M 191.929688 162.523438 L 213.601562 162.523438 L 213.601562 184.65625 L 224.5625 184.65625 C 229.625 184.65625 234.820312 183.753906 239.621094 182.128906 C 241.972656 181.335938 244.613281 180.222656 246.9375 178.828125 C 243.878906 174.835938 242.316406 169.804688 241.855469 164.835938 C 241.230469 158.082031 242.597656 149.289062 247.167969 144 L 249.449219 141.371094 L 252.164062 143.550781 C 258.992188 149.03125 264.746094 156.695312 265.753906 165.4375 C 273.984375 163.015625 283.644531 163.589844 290.898438 167.773438 L 293.878906 169.488281 L 292.3125 172.542969 C 286.179688 184.503906 273.355469 188.203125 260.816406 187.550781 C 242.050781 234.234375 201.203125 256.332031 151.671875 256.332031 C 126.085938 256.332031 102.601562 246.777344 89.238281 224.097656 L 89.019531 223.726562 L 87.066406 219.773438 C 82.546875 209.789062 81.046875 198.859375 82.0625 187.929688 L 82.371094 184.65625 L 100.90625 184.65625 L 100.90625 162.523438 L 122.578125 162.523438 L 122.578125 140.875 L 165.917969 140.875 L 165.917969 119.230469 L 191.929688 119.230469 Z M 191.929688 162.523438 " fill-opacity="1" fill-rule="nonzero"/></g><path fill="#22a0c8" d="M 262.140625 170.714844 C 263.589844 159.433594 255.140625 150.578125 249.898438 146.367188 C 243.863281 153.339844 242.917969 171.625 252.402344 179.324219 C 247.117188 184.011719 235.96875 188.265625 224.5625 188.265625 L 85.667969 188.265625 C 84.5625 200.164062 86.648438 211.121094 91.421875 220.496094 L 93.003906 223.382812 C 94.003906 225.078125 95.097656 226.722656 96.273438 228.292969 C 101.984375 228.664062 107.25 228.785156 112.066406 228.679688 C 121.535156 228.46875 129.257812 227.355469 135.109375 225.324219 C 135.992188 225.050781 136.921875 225.546875 137.195312 226.421875 C 137.460938 227.257812 137.019531 228.160156 136.195312 228.46875 C 135.417969 228.742188 134.605469 228.988281 133.765625 229.226562 C 129.160156 230.542969 124.210938 231.425781 117.839844 231.824219 C 118.21875 231.832031 117.441406 231.875 117.441406 231.875 C 117.222656 231.894531 116.957031 231.921875 116.734375 231.929688 C 114.226562 232.070312 111.519531 232.097656 108.746094 232.097656 C 105.714844 232.097656 102.734375 232.042969 99.394531 231.867188 L 99.304688 231.921875 C 110.875 244.914062 128.976562 252.703125 151.65625 252.703125 C 199.65625 252.703125 240.371094 231.445312 258.402344 183.726562 C 271.191406 185.042969 283.484375 181.777344 289.078125 170.875 C 280.1875 165.761719 268.734375 167.394531 262.140625 170.714844 Z M 262.140625 170.714844 " fill-opacity="1" fill-rule="nonzero"/><path fill="#37b1d9" d="M 262.140625 170.714844 C 263.589844 159.433594 255.140625 150.578125 249.898438 146.367188 C 243.863281 153.339844 242.917969 171.625 252.402344 179.324219 C 247.117188 184.011719 235.96875 188.265625 224.5625 188.265625 L 93.886719 188.265625 C 93.324219 206.488281 100.09375 220.3125 112.066406 228.679688 C 121.535156 228.46875 129.257812 227.355469 135.109375 225.324219 C 135.992188 225.050781 136.921875 225.546875 137.195312 226.421875 C 137.460938 227.257812 137.019531 228.160156 136.195312 228.46875 C 135.417969 228.742188 134.605469 228.988281 133.765625 229.226562 C 129.160156 230.542969 123.789062 231.542969 117.414062 231.929688 C 117.414062 231.929688 117.265625 231.78125 117.257812 231.78125 C 133.589844 240.148438 157.285156 240.121094 184.433594 229.695312 C 214.882812 218.007812 243.226562 195.75 262.996094 170.28125 C 262.714844 170.433594 262.421875 170.574219 262.140625 170.714844 Z M 262.140625 170.714844 " fill-opacity="1" fill-rule="nonzero"/><path fill="#1b81a5" d="M 85.925781 202.71875 C 86.792969 209.089844 88.65625 215.058594 91.421875 220.488281 L 93.003906 223.375 C 94.003906 225.070312 95.097656 226.710938 96.273438 228.285156 C 101.984375 228.652344 107.25 228.777344 112.066406 228.671875 C 121.535156 228.460938 129.257812 227.347656 135.109375 225.316406 C 135.992188 225.042969 136.921875 225.539062 137.195312 226.410156 C 137.460938 227.25 137.019531 228.152344 136.195312 228.460938 C 135.417969 228.734375 134.605469 228.980469 133.765625 229.21875 C 129.160156 230.535156 123.8125 231.480469 117.441406 231.867188 C 117.222656 231.886719 116.839844 231.886719 116.621094 231.894531 C 114.109375 232.035156 111.433594 232.125 108.65625 232.125 C 105.625 232.125 102.53125 232.0625 99.199219 231.894531 C 110.769531 244.890625 128.976562 252.710938 151.664062 252.710938 C 192.761719 252.710938 228.511719 237.128906 249.261719 202.707031 L 85.925781 202.707031 Z M 85.925781 202.71875 " fill-opacity="1" fill-rule="nonzero"/><path fill="#1d91b4" d="M 95.144531 202.71875 C 97.601562 213.910156 103.503906 222.695312 112.078125 228.671875 C 121.542969 228.460938 129.265625 227.347656 135.117188 225.316406 C 136.003906 225.042969 136.929688 225.539062 137.203125 226.410156 C 137.46875 227.25 137.027344 228.152344 136.207031 228.460938 C 135.425781 228.734375 134.613281 228.980469 133.773438 229.21875 C 129.171875 230.535156 123.71875 231.480469 117.335938 231.867188 C 133.667969 240.238281 157.292969 240.113281 184.445312 229.695312 C 200.875 223.394531 216.6875 214.007812 230.871094 202.699219 L 95.144531 202.699219 Z M 95.144531 202.71875 " fill-opacity="1" fill-rule="nonzero"/><path fill="#23a3c2" d="M 104.519531 166.132812 L 123.300781 166.132812 L 123.300781 184.894531 L 104.519531 184.894531 Z M 106.085938 167.695312 L 107.570312 167.695312 L 107.570312 183.332031 L 106.085938 183.332031 Z M 108.867188 167.695312 L 110.40625 167.695312 L 110.40625 183.332031 L 108.867188 183.332031 Z M 111.714844 167.695312 L 113.253906 167.695312 L 113.253906 183.332031 L 111.714844 183.332031 Z M 114.5625 167.695312 L 116.097656 167.695312 L 116.097656 183.332031 L 114.5625 183.332031 Z M 117.40625 167.695312 L 118.945312 167.695312 L 118.945312 183.332031 L 117.40625 183.332031 Z M 120.253906 167.695312 L 121.738281 167.695312 L 121.738281 183.332031 L 120.253906 183.332031 Z M 126.191406 144.484375 L 144.972656 144.484375 L 144.972656 163.246094 L 126.183594 163.246094 Z M 127.757812 146.050781 L 129.242188 146.050781 L 129.242188 161.683594 L 127.757812 161.683594 Z M 130.539062 146.050781 L 132.078125 146.050781 L 132.078125 161.683594 L 130.539062 161.683594 Z M 133.386719 146.050781 L 134.921875 146.050781 L 134.921875 161.683594 L 133.386719 161.683594 Z M 136.230469 146.050781 L 137.769531 146.050781 L 137.769531 161.683594 L 136.230469 161.683594 Z M 139.078125 146.050781 L 140.617188 146.050781 L 140.617188 161.683594 L 139.078125 161.683594 Z M 141.921875 146.050781 L 143.410156 146.050781 L 143.410156 161.683594 L 141.921875 161.683594 Z M 141.921875 146.050781 " fill-opacity="1" fill-rule="nonzero"/><path fill="#34bbde" d="M 126.191406 166.132812 L 144.972656 166.132812 L 144.972656 184.894531 L 126.183594 184.894531 Z M 127.757812 167.695312 L 129.242188 167.695312 L 129.242188 183.332031 L 127.757812 183.332031 Z M 130.539062 167.695312 L 132.078125 167.695312 L 132.078125 183.332031 L 130.539062 183.332031 Z M 133.386719 167.695312 L 134.921875 167.695312 L 134.921875 183.332031 L 133.386719 183.332031 Z M 136.230469 167.695312 L 137.769531 167.695312 L 137.769531 183.332031 L 136.230469 183.332031 Z M 139.078125 167.695312 L 140.617188 167.695312 L 140.617188 183.332031 L 139.078125 183.332031 Z M 141.921875 167.695312 L 143.410156 167.695312 L 143.410156 183.332031 L 141.921875 183.332031 Z M 141.921875 167.695312 " fill-opacity="1" fill-rule="nonzero"/><path fill="#23a3c2" d="M 147.863281 166.132812 L 166.644531 166.132812 L 166.644531 184.894531 L 147.863281 184.894531 Z M 149.425781 167.695312 L 150.910156 167.695312 L 150.910156 183.332031 L 149.425781 183.332031 Z M 152.210938 167.695312 L 153.75 167.695312 L 153.75 183.332031 L 152.210938 183.332031 Z M 155.058594 167.695312 L 156.59375 167.695312 L 156.59375 183.332031 L 155.058594 183.332031 Z M 157.902344 167.695312 L 159.441406 167.695312 L 159.441406 183.332031 L 157.902344 183.332031 Z M 160.75 167.695312 L 162.296875 167.695312 L 162.296875 183.332031 L 160.75 183.332031 Z M 163.59375 167.695312 L 165.078125 167.695312 L 165.078125 183.332031 L 163.59375 183.332031 Z M 163.59375 167.695312 " fill-opacity="1" fill-rule="nonzero"/><path fill="#34bbde" d="M 147.863281 144.484375 L 166.644531 144.484375 L 166.644531 163.246094 L 147.863281 163.246094 Z M 149.425781 146.050781 L 150.910156 146.050781 L 150.910156 161.683594 L 149.425781 161.683594 Z M 152.210938 146.050781 L 153.75 146.050781 L 153.75 161.683594 L 152.210938 161.683594 Z M 155.058594 146.050781 L 156.59375 146.050781 L 156.59375 161.683594 L 155.058594 161.683594 Z M 157.902344 146.050781 L 159.441406 146.050781 L 159.441406 161.683594 L 157.902344 161.683594 Z M 160.75 146.050781 L 162.296875 146.050781 L 162.296875 161.683594 L 160.75 161.683594 Z M 163.59375 146.050781 L 165.078125 146.050781 L 165.078125 161.683594 L 163.59375 161.683594 Z M 169.535156 166.132812 L 188.316406 166.132812 L 188.316406 184.894531 L 169.535156 184.894531 Z M 171.097656 167.695312 L 172.582031 167.695312 L 172.582031 183.332031 L 171.097656 183.332031 Z M 173.882812 167.695312 L 175.421875 167.695312 L 175.421875 183.332031 L 173.882812 183.332031 Z M 176.726562 167.695312 L 178.265625 167.695312 L 178.265625 183.332031 L 176.726562 183.332031 Z M 179.574219 167.695312 L 181.113281 167.695312 L 181.113281 183.332031 L 179.574219 183.332031 Z M 182.421875 167.695312 L 183.957031 167.695312 L 183.957031 183.332031 L 182.421875 183.332031 Z M 185.265625 167.695312 L 186.75 167.695312 L 186.75 183.332031 L 185.265625 183.332031 Z M 185.265625 167.695312 " fill-opacity="1" fill-rule="nonzero"/><path fill="#23a3c2" d="M 169.535156 144.484375 L 188.316406 144.484375 L 188.316406 163.246094 L 169.535156 163.246094 Z M 171.097656 146.050781 L 172.582031 146.050781 L 172.582031 161.683594 L 171.097656 161.683594 Z M 173.882812 146.050781 L 175.421875 146.050781 L 175.421875 161.683594 L 173.882812 161.683594 Z M 176.726562 146.050781 L 178.265625 146.050781 L 178.265625 161.683594 L 176.726562 161.683594 Z M 179.574219 146.050781 L 181.113281 146.050781 L 181.113281 161.683594 L 179.574219 161.683594 Z M 182.421875 146.050781 L 183.957031 146.050781 L 183.957031 161.683594 L 182.421875 161.683594 Z M 185.265625 146.050781 L 186.75 146.050781 L 186.75 161.683594 L 185.265625 161.683594 Z M 185.265625 146.050781 " fill-opacity="1" fill-rule="nonzero"/><path fill="#34bbde" d="M 169.535156 122.839844 L 188.316406 122.839844 L 188.316406 141.597656 L 169.535156 141.597656 Z M 171.097656 124.402344 L 172.582031 124.402344 L 172.582031 140.035156 L 171.097656 140.035156 Z M 173.882812 124.402344 L 175.421875 124.402344 L 175.421875 140.035156 L 173.882812 140.035156 Z M 176.726562 124.402344 L 178.265625 124.402344 L 178.265625 140.035156 L 176.726562 140.035156 Z M 179.574219 124.402344 L 181.113281 124.402344 L 181.113281 140.035156 L 179.574219 140.035156 Z M 182.421875 124.402344 L 183.957031 124.402344 L 183.957031 140.035156 L 182.421875 140.035156 Z M 185.265625 124.402344 L 186.75 124.402344 L 186.75 140.035156 L 185.265625 140.035156 Z M 185.265625 124.402344 " fill-opacity="1" fill-rule="nonzero"/><path fill="#23a3c2" d="M 191.207031 166.132812 L 209.988281 166.132812 L 209.988281 184.894531 L 191.207031 184.894531 Z M 192.769531 167.695312 L 194.253906 167.695312 L 194.253906 183.332031 L 192.769531 183.332031 Z M 195.554688 167.695312 L 197.089844 167.695312 L 197.089844 183.332031 L 195.554688 183.332031 Z M 198.398438 167.695312 L 199.9375 167.695312 L 199.9375 183.332031 L 198.398438 183.332031 Z M 201.246094 167.695312 L 202.785156 167.695312 L 202.785156 183.332031 L 201.246094 183.332031 Z M 204.089844 167.695312 L 205.628906 167.695312 L 205.628906 183.332031 L 204.089844 183.332031 Z M 206.9375 167.695312 L 208.421875 167.695312 L 208.421875 183.332031 L 206.9375 183.332031 Z M 206.9375 167.695312 " fill-opacity="1" fill-rule="nonzero"/><path fill="#d3ecec" d="M 143.796875 215.316406 C 146.660156 215.28125 149.011719 217.566406 149.046875 220.425781 C 149.082031 223.285156 146.792969 225.636719 143.929688 225.671875 C 143.886719 225.671875 143.832031 225.671875 143.789062 225.671875 C 140.925781 225.636719 138.636719 223.285156 138.679688 220.425781 C 138.722656 217.609375 140.988281 215.351562 143.796875 215.316406 Z M 143.796875 215.316406 " fill-opacity="1" fill-rule="nonzero"/><path fill="#364548" d="M 143.796875 216.78125 C 144.273438 216.78125 144.726562 216.867188 145.140625 217.027344 C 144.414062 217.453125 144.167969 218.371094 144.59375 219.09375 C 144.867188 219.5625 145.363281 219.84375 145.902344 219.84375 C 146.476562 219.84375 146.96875 219.527344 147.226562 219.058594 C 148.011719 220.945312 147.113281 223.117188 145.21875 223.90625 C 143.328125 224.691406 141.15625 223.789062 140.367188 221.902344 C 139.582031 220.011719 140.484375 217.839844 142.375 217.054688 C 142.824219 216.878906 143.3125 216.78125 143.796875 216.78125 Z M 143.796875 216.78125 " fill-opacity="1" fill-rule="nonzero"/><path fill="#bdd9d7" d="M 157.566406 252.605469 C 144.734375 246.523438 137.691406 238.25 133.773438 229.226562 C 129.011719 230.585938 123.273438 231.453125 116.621094 231.832031 C 114.109375 231.972656 111.476562 232.042969 108.710938 232.042969 C 105.519531 232.042969 102.152344 231.945312 98.625 231.761719 C 110.398438 243.511719 124.875 252.550781 151.679688 252.71875 C 153.652344 252.71875 155.613281 252.683594 157.566406 252.605469 Z M 157.566406 252.605469 " fill-opacity="1" fill-rule="nonzero"/><path fill="#d3ecec" d="M 138.539062 237.5625 C 136.761719 235.152344 135.039062 232.132812 133.773438 229.226562 C 129.011719 230.585938 123.273438 231.460938 116.621094 231.832031 C 121.199219 234.3125 127.738281 236.609375 138.539062 237.5625 Z M 138.539062 237.5625 " fill-opacity="1" fill-rule="nonzero"/></svg>