<svg xmlns="http://www.w3.org/2000/svg" xmlns:xlink="http://www.w3.org/1999/xlink" width="500" zoomAndPan="magnify" viewBox="0 0 375 374.999991" height="500" preserveAspectRatio="xMidYMid meet" version="1.0"><defs><clipPath id="1b64bd682e"><path d="M 52.539062 101.808594 L 322.460938 101.808594 L 322.460938 337.5 L 52.539062 337.5 Z M 52.539062 101.808594 " clip-rule="nonzero"/></clipPath><clipPath id="fe0bc702fd"><path d="M 68.289062 101.808594 L 306.710938 101.808594 C 310.890625 101.808594 314.894531 103.46875 317.851562 106.421875 C 320.804688 109.375 322.460938 113.382812 322.460938 117.558594 L 322.460938 321.75 C 322.460938 325.925781 320.804688 329.933594 317.851562 332.886719 C 314.894531 335.839844 310.890625 337.5 306.710938 337.5 L 68.289062 337.5 C 64.109375 337.5 60.105469 335.839844 57.148438 332.886719 C 54.195312 329.933594 52.539062 325.925781 52.539062 321.75 L 52.539062 117.558594 C 52.539062 108.863281 59.589844 101.808594 68.289062 101.808594 Z M 68.289062 101.808594 " clip-rule="nonzero"/></clipPath><linearGradient x1="0.00000020007" gradientTransform="matrix(1.054397, 0, 0, 0.920665, 52.537131, 101.809818)" y1="0" x2="255.999991" gradientUnits="userSpaceOnUse" y2="0" id="7ca10b837d"><stop stop-opacity="1" stop-color="rgb(0%, 0%, 0%)" offset="0"/><stop stop-opacity="1" stop-color="rgb(0.175476%, 0.175476%, 0.175476%)" offset="0.0078125"/><stop stop-opacity="1" stop-color="rgb(0.526428%, 0.526428%, 0.526428%)" offset="0.015625"/><stop stop-opacity="1" stop-color="rgb(0.878906%, 0.878906%, 0.878906%)" offset="0.0234375"/><stop stop-opacity="1" stop-color="rgb(1.231384%, 1.231384%, 1.231384%)" offset="0.03125"/><stop stop-opacity="1" stop-color="rgb(1.583862%, 1.583862%, 1.583862%)" offset="0.0390625"/><stop stop-opacity="1" stop-color="rgb(1.93634%, 1.93634%, 1.93634%)" offset="0.046875"/><stop stop-opacity="1" stop-color="rgb(2.288818%, 2.288818%, 2.288818%)" offset="0.0546875"/><stop stop-opacity="1" stop-color="rgb(2.641296%, 2.641296%, 2.641296%)" offset="0.0625"/><stop stop-opacity="1" stop-color="rgb(2.993774%, 2.993774%, 2.993774%)" offset="0.0703125"/><stop stop-opacity="1" stop-color="rgb(3.346252%, 3.346252%, 3.346252%)" offset="0.078125"/><stop stop-opacity="1" stop-color="rgb(3.69873%, 3.69873%, 3.69873%)" offset="0.0859375"/><stop stop-opacity="1" stop-color="rgb(4.051208%, 4.051208%, 4.051208%)" offset="0.09375"/><stop stop-opacity="1" stop-color="rgb(4.402161%, 4.402161%, 4.402161%)" offset="0.101562"/><stop stop-opacity="1" stop-color="rgb(4.754639%, 4.754639%, 4.754639%)" offset="0.109375"/><stop stop-opacity="1" stop-color="rgb(5.107117%, 5.107117%, 5.107117%)" offset="0.117187"/><stop stop-opacity="1" stop-color="rgb(5.459595%, 5.459595%, 5.459595%)" offset="0.125"/><stop stop-opacity="1" stop-color="rgb(5.812073%, 5.812073%, 5.812073%)" offset="0.132812"/><stop stop-opacity="1" stop-color="rgb(6.164551%, 6.164551%, 6.164551%)" offset="0.140625"/><stop stop-opacity="1" stop-color="rgb(6.517029%, 6.517029%, 6.517029%)" offset="0.148437"/><stop stop-opacity="1" stop-color="rgb(6.869507%, 6.869507%, 6.869507%)" offset="0.15625"/><stop stop-opacity="1" stop-color="rgb(7.221985%, 7.221985%, 7.221985%)" offset="0.164062"/><stop stop-opacity="1" stop-color="rgb(7.574463%, 7.574463%, 7.574463%)" offset="0.171875"/><stop stop-opacity="1" stop-color="rgb(7.926941%, 7.926941%, 7.926941%)" offset="0.179687"/><stop stop-opacity="1" stop-color="rgb(8.277893%, 8.277893%, 8.277893%)" offset="0.1875"/><stop stop-opacity="1" stop-color="rgb(8.630371%, 8.630371%, 8.630371%)" offset="0.195312"/><stop stop-opacity="1" stop-color="rgb(8.982849%, 8.982849%, 8.982849%)" offset="0.203125"/><stop stop-opacity="1" stop-color="rgb(9.335327%, 9.335327%, 9.335327%)" offset="0.210937"/><stop stop-opacity="1" stop-color="rgb(9.687805%, 9.687805%, 9.687805%)" offset="0.21875"/><stop stop-opacity="1" stop-color="rgb(10.040283%, 10.040283%, 10.040283%)" offset="0.226562"/><stop stop-opacity="1" stop-color="rgb(10.392761%, 10.392761%, 10.392761%)" offset="0.234375"/><stop stop-opacity="1" stop-color="rgb(10.745239%, 10.745239%, 10.745239%)" offset="0.242187"/><stop stop-opacity="1" stop-color="rgb(11.097717%, 11.097717%, 11.097717%)" offset="0.25"/><stop stop-opacity="1" stop-color="rgb(11.450195%, 11.450195%, 11.450195%)" offset="0.257812"/><stop stop-opacity="1" stop-color="rgb(11.802673%, 11.802673%, 11.802673%)" offset="0.265625"/><stop stop-opacity="1" stop-color="rgb(12.155151%, 12.155151%, 12.155151%)" offset="0.273438"/><stop stop-opacity="1" stop-color="rgb(12.506104%, 12.506104%, 12.506104%)" offset="0.28125"/><stop stop-opacity="1" stop-color="rgb(12.858582%, 12.858582%, 12.858582%)" offset="0.289062"/><stop stop-opacity="1" stop-color="rgb(13.21106%, 13.21106%, 13.21106%)" offset="0.296875"/><stop stop-opacity="1" stop-color="rgb(13.563538%, 13.563538%, 13.563538%)" offset="0.304687"/><stop stop-opacity="1" stop-color="rgb(13.916016%, 13.916016%, 13.916016%)" offset="0.3125"/><stop stop-opacity="1" stop-color="rgb(14.268494%, 14.268494%, 14.268494%)" offset="0.320313"/><stop stop-opacity="1" stop-color="rgb(14.620972%, 14.620972%, 14.620972%)" offset="0.328125"/><stop stop-opacity="1" stop-color="rgb(14.97345%, 14.97345%, 14.97345%)" offset="0.335938"/><stop stop-opacity="1" stop-color="rgb(15.325928%, 15.325928%, 15.325928%)" offset="0.34375"/><stop stop-opacity="1" stop-color="rgb(15.678406%, 15.678406%, 15.678406%)" offset="0.351562"/><stop stop-opacity="1" stop-color="rgb(16.030884%, 16.030884%, 16.030884%)" offset="0.359375"/><stop stop-opacity="1" stop-color="rgb(16.381836%, 16.381836%, 16.381836%)" offset="0.367188"/><stop stop-opacity="1" stop-color="rgb(16.734314%, 16.734314%, 16.734314%)" offset="0.375"/><stop stop-opacity="1" stop-color="rgb(17.086792%, 17.086792%, 17.086792%)" offset="0.382812"/><stop stop-opacity="1" stop-color="rgb(17.43927%, 17.43927%, 17.43927%)" offset="0.390625"/><stop stop-opacity="1" stop-color="rgb(17.791748%, 17.791748%, 17.791748%)" offset="0.398438"/><stop stop-opacity="1" stop-color="rgb(18.144226%, 18.144226%, 18.144226%)" offset="0.40625"/><stop stop-opacity="1" stop-color="rgb(18.496704%, 18.496704%, 18.496704%)" offset="0.414062"/><stop stop-opacity="1" stop-color="rgb(18.849182%, 18.849182%, 18.849182%)" offset="0.421875"/><stop stop-opacity="1" stop-color="rgb(19.20166%, 19.20166%, 19.20166%)" offset="0.429687"/><stop stop-opacity="1" stop-color="rgb(19.554138%, 19.554138%, 19.554138%)" offset="0.4375"/><stop stop-opacity="1" stop-color="rgb(19.906616%, 19.906616%, 19.906616%)" offset="0.445313"/><stop stop-opacity="1" stop-color="rgb(20.257568%, 20.257568%, 20.257568%)" offset="0.453125"/><stop stop-opacity="1" stop-color="rgb(20.610046%, 20.610046%, 20.610046%)" offset="0.460938"/><stop stop-opacity="1" stop-color="rgb(20.962524%, 20.962524%, 20.962524%)" offset="0.46875"/><stop stop-opacity="1" stop-color="rgb(21.315002%, 21.315002%, 21.315002%)" offset="0.476562"/><stop stop-opacity="1" stop-color="rgb(21.66748%, 21.66748%, 21.66748%)" offset="0.484375"/><stop stop-opacity="1" stop-color="rgb(22.019958%, 22.019958%, 22.019958%)" offset="0.492188"/><stop stop-opacity="1" stop-color="rgb(22.372437%, 22.372437%, 22.372437%)" offset="0.5"/><stop stop-opacity="1" stop-color="rgb(22.724915%, 22.724915%, 22.724915%)" offset="0.507812"/><stop stop-opacity="1" stop-color="rgb(23.077393%, 23.077393%, 23.077393%)" offset="0.515625"/><stop stop-opacity="1" stop-color="rgb(23.429871%, 23.429871%, 23.429871%)" offset="0.523437"/><stop stop-opacity="1" stop-color="rgb(23.782349%, 23.782349%, 23.782349%)" offset="0.53125"/><stop stop-opacity="1" stop-color="rgb(24.134827%, 24.134827%, 24.134827%)" offset="0.539063"/><stop stop-opacity="1" stop-color="rgb(24.485779%, 24.485779%, 24.485779%)" offset="0.546875"/><stop stop-opacity="1" stop-color="rgb(24.838257%, 24.838257%, 24.838257%)" offset="0.554688"/><stop stop-opacity="1" stop-color="rgb(25.190735%, 25.190735%, 25.190735%)" offset="0.5625"/><stop stop-opacity="1" stop-color="rgb(25.543213%, 25.543213%, 25.543213%)" offset="0.570312"/><stop stop-opacity="1" stop-color="rgb(25.895691%, 25.895691%, 25.895691%)" offset="0.578125"/><stop stop-opacity="1" stop-color="rgb(26.248169%, 26.248169%, 26.248169%)" offset="0.585938"/><stop stop-opacity="1" stop-color="rgb(26.600647%, 26.600647%, 26.600647%)" offset="0.59375"/><stop stop-opacity="1" stop-color="rgb(26.953125%, 26.953125%, 26.953125%)" offset="0.601562"/><stop stop-opacity="1" stop-color="rgb(27.305603%, 27.305603%, 27.305603%)" offset="0.609375"/><stop stop-opacity="1" stop-color="rgb(27.658081%, 27.658081%, 27.658081%)" offset="0.617187"/><stop stop-opacity="1" stop-color="rgb(28.010559%, 28.010559%, 28.010559%)" offset="0.625"/><stop stop-opacity="1" stop-color="rgb(28.361511%, 28.361511%, 28.361511%)" offset="0.632813"/><stop stop-opacity="1" stop-color="rgb(28.713989%, 28.713989%, 28.713989%)" offset="0.640625"/><stop stop-opacity="1" stop-color="rgb(29.066467%, 29.066467%, 29.066467%)" offset="0.648438"/><stop stop-opacity="1" stop-color="rgb(29.418945%, 29.418945%, 29.418945%)" offset="0.65625"/><stop stop-opacity="1" stop-color="rgb(29.771423%, 29.771423%, 29.771423%)" offset="0.664062"/><stop stop-opacity="1" stop-color="rgb(30.123901%, 30.123901%, 30.123901%)" offset="0.671875"/><stop stop-opacity="1" stop-color="rgb(30.476379%, 30.476379%, 30.476379%)" offset="0.679688"/><stop stop-opacity="1" stop-color="rgb(30.828857%, 30.828857%, 30.828857%)" offset="0.6875"/><stop stop-opacity="1" stop-color="rgb(31.181335%, 31.181335%, 31.181335%)" offset="0.695312"/><stop stop-opacity="1" stop-color="rgb(31.533813%, 31.533813%, 31.533813%)" offset="0.703125"/><stop stop-opacity="1" stop-color="rgb(31.886292%, 31.886292%, 31.886292%)" offset="0.710937"/><stop stop-opacity="1" stop-color="rgb(32.237244%, 32.237244%, 32.237244%)" offset="0.71875"/><stop stop-opacity="1" stop-color="rgb(32.589722%, 32.589722%, 32.589722%)" offset="0.726563"/><stop stop-opacity="1" stop-color="rgb(32.9422%, 32.9422%, 32.9422%)" offset="0.734375"/><stop stop-opacity="1" stop-color="rgb(33.294678%, 33.294678%, 33.294678%)" offset="0.742188"/><stop stop-opacity="1" stop-color="rgb(33.647156%, 33.647156%, 33.647156%)" offset="0.75"/><stop stop-opacity="1" stop-color="rgb(33.999634%, 33.999634%, 33.999634%)" offset="0.757812"/><stop stop-opacity="1" stop-color="rgb(34.352112%, 34.352112%, 34.352112%)" offset="0.765625"/><stop stop-opacity="1" stop-color="rgb(34.70459%, 34.70459%, 34.70459%)" offset="0.773437"/><stop stop-opacity="1" stop-color="rgb(35.057068%, 35.057068%, 35.057068%)" offset="0.78125"/><stop stop-opacity="1" stop-color="rgb(35.409546%, 35.409546%, 35.409546%)" offset="0.789063"/><stop stop-opacity="1" stop-color="rgb(35.762024%, 35.762024%, 35.762024%)" offset="0.796875"/><stop stop-opacity="1" stop-color="rgb(36.114502%, 36.114502%, 36.114502%)" offset="0.804688"/><stop stop-opacity="1" stop-color="rgb(36.465454%, 36.465454%, 36.465454%)" offset="0.8125"/><stop stop-opacity="1" stop-color="rgb(36.817932%, 36.817932%, 36.817932%)" offset="0.820312"/><stop stop-opacity="1" stop-color="rgb(37.17041%, 37.17041%, 37.17041%)" offset="0.828125"/><stop stop-opacity="1" stop-color="rgb(37.522888%, 37.522888%, 37.522888%)" offset="0.835938"/><stop stop-opacity="1" stop-color="rgb(37.875366%, 37.875366%, 37.875366%)" offset="0.84375"/><stop stop-opacity="1" stop-color="rgb(38.227844%, 38.227844%, 38.227844%)" offset="0.851562"/><stop stop-opacity="1" stop-color="rgb(38.580322%, 38.580322%, 38.580322%)" offset="0.859375"/><stop stop-opacity="1" stop-color="rgb(38.9328%, 38.9328%, 38.9328%)" offset="0.867187"/><stop stop-opacity="1" stop-color="rgb(39.285278%, 39.285278%, 39.285278%)" offset="0.875"/><stop stop-opacity="1" stop-color="rgb(39.637756%, 39.637756%, 39.637756%)" offset="0.882813"/><stop stop-opacity="1" stop-color="rgb(39.990234%, 39.990234%, 39.990234%)" offset="0.890625"/><stop stop-opacity="1" stop-color="rgb(40.341187%, 40.341187%, 40.341187%)" offset="0.898438"/><stop stop-opacity="1" stop-color="rgb(40.693665%, 40.693665%, 40.693665%)" offset="0.90625"/><stop stop-opacity="1" stop-color="rgb(41.046143%, 41.046143%, 41.046143%)" offset="0.914062"/><stop stop-opacity="1" stop-color="rgb(41.398621%, 41.398621%, 41.398621%)" offset="0.921875"/><stop stop-opacity="1" stop-color="rgb(41.751099%, 41.751099%, 41.751099%)" offset="0.929688"/><stop stop-opacity="1" stop-color="rgb(42.103577%, 42.103577%, 42.103577%)" offset="0.9375"/><stop stop-opacity="1" stop-color="rgb(42.456055%, 42.456055%, 42.456055%)" offset="0.945312"/><stop stop-opacity="1" stop-color="rgb(42.808533%, 42.808533%, 42.808533%)" offset="0.953125"/><stop stop-opacity="1" stop-color="rgb(43.161011%, 43.161011%, 43.161011%)" offset="0.960937"/><stop stop-opacity="1" stop-color="rgb(43.513489%, 43.513489%, 43.513489%)" offset="0.96875"/><stop stop-opacity="1" stop-color="rgb(43.865967%, 43.865967%, 43.865967%)" offset="0.976563"/><stop stop-opacity="1" stop-color="rgb(44.216919%, 44.216919%, 44.216919%)" offset="0.984375"/><stop stop-opacity="1" stop-color="rgb(44.569397%, 44.569397%, 44.569397%)" offset="0.992188"/><stop stop-opacity="1" stop-color="rgb(44.921875%, 44.921875%, 44.921875%)" offset="1"/></linearGradient></defs><rect x="-37.5" width="450" fill="#ffffff" y="-37.499999" height="449.999989" fill-opacity="1"/><rect x="-37.5" width="450" fill="#ffffff" y="-37.499999" height="449.999989" fill-opacity="1"/><g clip-path="url(#1b64bd682e)"><g clip-path="url(#fe0bc702fd)"><path fill="url(#7ca10b837d)" d="M 52.539062 101.808594 L 52.539062 337.5 L 322.460938 337.5 L 322.460938 101.808594 Z M 52.539062 101.808594 " fill-rule="nonzero"/></g></g><path fill="#000000" d="M 177.003906 134.246094 C 136.136719 138.785156 102.832031 171.820312 97.902344 212.695312 C 97.582031 215.261719 97.375 217.839844 97.277344 220.425781 C 97.179688 223.011719 97.191406 225.59375 97.3125 228.179688 C 97.4375 230.765625 97.667969 233.339844 98.011719 235.902344 C 98.355469 238.46875 98.808594 241.011719 99.367188 243.539062 C 99.929688 246.0625 100.597656 248.5625 101.371094 251.027344 C 102.148438 253.496094 103.027344 255.929688 104.007812 258.320312 C 104.992188 260.714844 106.074219 263.058594 107.257812 265.359375 C 108.441406 267.660156 109.722656 269.902344 111.097656 272.09375 C 112.472656 274.285156 113.941406 276.410156 115.5 278.472656 C 117.054688 280.539062 118.699219 282.53125 120.429688 284.453125 C 122.15625 286.375 123.964844 288.222656 125.851562 289.988281 C 127.738281 291.753906 129.695312 293.4375 131.726562 295.039062 C 133.757812 296.636719 135.851562 298.144531 138.011719 299.566406 C 140.171875 300.984375 142.386719 302.308594 144.660156 303.535156 C 146.933594 304.765625 149.253906 305.894531 151.625 306.925781 C 153.996094 307.953125 156.402344 308.878906 158.851562 309.703125 C 163.363281 310.421875 164.804688 307.625 164.804688 305.1875 L 164.804688 289.929688 C 139.839844 295.359375 134.527344 277.835938 134.527344 277.835938 C 130.394531 267.363281 124.523438 264.5625 124.523438 264.5625 C 116.320312 258.964844 125.164062 259.148438 125.164062 259.148438 C 134.171875 259.789062 138.949219 268.449219 138.949219 268.449219 C 146.789062 282.167969 160.03125 278.105469 165.167969 275.9375 C 165.980469 270.070312 168.359375 266.097656 170.847656 263.839844 C 150.808594 261.585938 129.839844 253.820312 129.839844 219.429688 C 129.839844 209.410156 133.265625 201.375 139.121094 194.964844 C 138.222656 192.710938 135.0625 183.324219 140.019531 171.136719 C 140.019531 171.136719 147.59375 168.695312 164.804688 180.34375 C 172.183594 178.355469 179.691406 177.359375 187.332031 177.359375 C 194.972656 177.359375 202.480469 178.355469 209.855469 180.34375 C 227.082031 168.695312 234.640625 171.136719 234.640625 171.136719 C 239.59375 183.324219 236.441406 192.710938 235.542969 194.964844 C 241.398438 201.355469 244.824219 209.410156 244.824219 219.429688 C 244.824219 253.910156 223.734375 261.496094 203.644531 263.75 C 206.882812 266.550781 209.855469 272.058594 209.855469 280.449219 L 209.855469 305.1875 C 209.855469 307.625 211.296875 310.511719 215.898438 309.703125 C 217.203125 309.261719 218.5 308.792969 219.785156 308.296875 C 221.070312 307.796875 222.34375 307.273438 223.605469 306.714844 C 224.863281 306.160156 226.113281 305.574219 227.347656 304.960938 C 228.578125 304.347656 229.800781 303.703125 231.003906 303.035156 C 232.207031 302.367188 233.398438 301.667969 234.570312 300.945312 C 235.742188 300.21875 236.898438 299.46875 238.035156 298.691406 C 239.175781 297.914062 240.296875 297.113281 241.398438 296.285156 C 242.5 295.453125 243.582031 294.601562 244.644531 293.722656 C 245.707031 292.84375 246.75 291.941406 247.769531 291.015625 C 248.792969 290.089844 249.789062 289.140625 250.769531 288.167969 C 251.746094 287.195312 252.703125 286.203125 253.632812 285.1875 C 254.566406 284.171875 255.476562 283.132812 256.359375 282.078125 C 257.246094 281.019531 258.105469 279.941406 258.941406 278.84375 C 259.777344 277.746094 260.589844 276.632812 261.375 275.496094 C 262.160156 274.363281 262.917969 273.210938 263.648438 272.042969 C 264.382812 270.875 265.085938 269.6875 265.765625 268.488281 C 266.441406 267.285156 267.09375 266.070312 267.714844 264.835938 C 268.335938 263.605469 268.929688 262.363281 269.496094 261.101562 C 270.0625 259.84375 270.597656 258.574219 271.105469 257.289062 C 271.613281 256.007812 272.089844 254.714844 272.539062 253.40625 C 272.984375 252.101562 273.402344 250.789062 273.792969 249.464844 C 274.179688 248.140625 274.535156 246.808594 274.863281 245.464844 C 275.191406 244.125 275.484375 242.777344 275.75 241.425781 C 276.015625 240.070312 276.25 238.710938 276.453125 237.34375 C 276.65625 235.980469 276.828125 234.609375 276.96875 233.238281 C 277.109375 231.863281 277.21875 230.488281 277.296875 229.113281 C 277.375 227.734375 277.421875 226.355469 277.433594 224.976562 C 277.449219 223.59375 277.433594 222.214844 277.382812 220.835938 C 277.335938 219.457031 277.253906 218.078125 277.144531 216.703125 C 277.03125 215.328125 276.890625 213.957031 276.714844 212.585938 C 276.539062 211.21875 276.335938 209.851562 276.097656 208.492188 C 275.859375 207.132812 275.59375 205.78125 275.292969 204.433594 C 274.996094 203.085938 274.667969 201.746094 274.304688 200.414062 C 273.945312 199.082031 273.554688 197.757812 273.136719 196.445312 C 272.714844 195.128906 272.265625 193.828125 271.785156 192.53125 C 271.304688 191.238281 270.796875 189.957031 270.257812 188.6875 C 269.71875 187.417969 269.152344 186.160156 268.554688 184.914062 C 267.957031 183.671875 267.332031 182.441406 266.679688 181.226562 C 266.027344 180.011719 265.347656 178.8125 264.640625 177.625 C 263.933594 176.441406 263.199219 175.273438 262.4375 174.125 C 261.679688 172.972656 260.890625 171.839844 260.078125 170.726562 C 259.265625 169.613281 258.429688 168.515625 257.566406 167.441406 C 256.703125 166.363281 255.816406 165.308594 254.90625 164.273438 C 253.996094 163.238281 253.058594 162.222656 252.101562 161.230469 C 251.144531 160.238281 250.167969 159.269531 249.164062 158.320312 C 248.164062 157.375 247.140625 156.449219 246.097656 155.550781 C 245.050781 154.648438 243.988281 153.773438 242.902344 152.921875 C 241.820312 152.070312 240.714844 151.242188 239.59375 150.441406 C 238.472656 149.640625 237.332031 148.867188 236.175781 148.117188 C 235.019531 147.367188 233.84375 146.648438 232.65625 145.953125 C 231.464844 145.257812 230.257812 144.589844 229.039062 143.949219 C 227.816406 143.3125 226.582031 142.699219 225.332031 142.117188 C 224.085938 141.535156 222.824219 140.980469 221.550781 140.457031 C 220.273438 139.929688 218.988281 139.433594 217.691406 138.96875 C 216.394531 138.503906 215.089844 138.066406 213.773438 137.660156 C 212.457031 137.253906 211.128906 136.878906 209.796875 136.535156 C 208.460938 136.1875 207.121094 135.875 205.773438 135.589844 C 204.425781 135.308594 203.070312 135.054688 201.710938 134.832031 C 200.351562 134.613281 198.988281 134.421875 197.617188 134.261719 C 196.25 134.105469 194.878906 133.976562 193.503906 133.882812 C 192.128906 133.785156 190.753906 133.722656 189.378906 133.6875 C 188 133.65625 186.621094 133.65625 185.246094 133.683594 C 183.867188 133.714844 182.492188 133.777344 181.117188 133.871094 C 179.742188 133.964844 178.371094 134.089844 177.003906 134.246094 Z M 177.003906 134.246094 " fill-opacity="1" fill-rule="nonzero"/></svg>